<svg xmlns="http://www.w3.org/2000/svg" xmlns:xlink="http://www.w3.org/1999/xlink" width="600" height="400" viewBox="0 0 2400 1600">
<defs>
  <clipPath id="clip540">
    <rect x="0" y="0" width="2400" height="1600"></rect>
  </clipPath>
</defs>
<path clip-path="url(#clip540)" d="M0 1600 L2400 1600 L2400 8.88178e-14 L0 8.88178e-14  Z" fill="#ffffff" fill-rule="evenodd" fill-opacity="1"></path>
<defs>
  <clipPath id="clip541">
    <rect x="480" y="0" width="1681" height="1600"></rect>
  </clipPath>
</defs>
<path clip-path="url(#clip540)" d="M138.959 1486.45 L2352.76 1486.45 L2352.76 47.2441 L138.959 47.2441  Z" fill="#ffffff" fill-rule="evenodd" fill-opacity="1"></path>
<defs>
  <clipPath id="clip542">
    <rect x="138" y="47" width="2215" height="1440"></rect>
  </clipPath>
</defs>
<polyline clip-path="url(#clip542)" style="stroke:#000000; stroke-linecap:round; stroke-linejoin:round; stroke-width:2; stroke-opacity:0.1; fill:none" points="386.029,1486.45 386.029,47.2441 "></polyline>
<polyline clip-path="url(#clip542)" style="stroke:#000000; stroke-linecap:round; stroke-linejoin:round; stroke-width:2; stroke-opacity:0.1; fill:none" points="703.375,1486.45 703.375,47.2441 "></polyline>
<polyline clip-path="url(#clip542)" style="stroke:#000000; stroke-linecap:round; stroke-linejoin:round; stroke-width:2; stroke-opacity:0.1; fill:none" points="1020.72,1486.45 1020.72,47.2441 "></polyline>
<polyline clip-path="url(#clip542)" style="stroke:#000000; stroke-linecap:round; stroke-linejoin:round; stroke-width:2; stroke-opacity:0.1; fill:none" points="1338.07,1486.45 1338.07,47.2441 "></polyline>
<polyline clip-path="url(#clip542)" style="stroke:#000000; stroke-linecap:round; stroke-linejoin:round; stroke-width:2; stroke-opacity:0.1; fill:none" points="1655.41,1486.45 1655.41,47.2441 "></polyline>
<polyline clip-path="url(#clip542)" style="stroke:#000000; stroke-linecap:round; stroke-linejoin:round; stroke-width:2; stroke-opacity:0.1; fill:none" points="1972.76,1486.45 1972.76,47.2441 "></polyline>
<polyline clip-path="url(#clip542)" style="stroke:#000000; stroke-linecap:round; stroke-linejoin:round; stroke-width:2; stroke-opacity:0.1; fill:none" points="2290.1,1486.45 2290.1,47.2441 "></polyline>
<polyline clip-path="url(#clip542)" style="stroke:#000000; stroke-linecap:round; stroke-linejoin:round; stroke-width:2; stroke-opacity:0.1; fill:none" points="138.959,1445.72 2352.76,1445.72 "></polyline>
<polyline clip-path="url(#clip542)" style="stroke:#000000; stroke-linecap:round; stroke-linejoin:round; stroke-width:2; stroke-opacity:0.1; fill:none" points="138.959,1239.41 2352.76,1239.41 "></polyline>
<polyline clip-path="url(#clip542)" style="stroke:#000000; stroke-linecap:round; stroke-linejoin:round; stroke-width:2; stroke-opacity:0.1; fill:none" points="138.959,1033.1 2352.76,1033.1 "></polyline>
<polyline clip-path="url(#clip542)" style="stroke:#000000; stroke-linecap:round; stroke-linejoin:round; stroke-width:2; stroke-opacity:0.1; fill:none" points="138.959,826.791 2352.76,826.791 "></polyline>
<polyline clip-path="url(#clip542)" style="stroke:#000000; stroke-linecap:round; stroke-linejoin:round; stroke-width:2; stroke-opacity:0.1; fill:none" points="138.959,620.482 2352.76,620.482 "></polyline>
<polyline clip-path="url(#clip542)" style="stroke:#000000; stroke-linecap:round; stroke-linejoin:round; stroke-width:2; stroke-opacity:0.1; fill:none" points="138.959,414.174 2352.76,414.174 "></polyline>
<polyline clip-path="url(#clip542)" style="stroke:#000000; stroke-linecap:round; stroke-linejoin:round; stroke-width:2; stroke-opacity:0.1; fill:none" points="138.959,207.866 2352.76,207.866 "></polyline>
<polyline clip-path="url(#clip540)" style="stroke:#000000; stroke-linecap:round; stroke-linejoin:round; stroke-width:4; stroke-opacity:1; fill:none" points="138.959,1486.45 2352.76,1486.45 "></polyline>
<polyline clip-path="url(#clip540)" style="stroke:#000000; stroke-linecap:round; stroke-linejoin:round; stroke-width:4; stroke-opacity:1; fill:none" points="386.029,1486.45 386.029,1467.55 "></polyline>
<polyline clip-path="url(#clip540)" style="stroke:#000000; stroke-linecap:round; stroke-linejoin:round; stroke-width:4; stroke-opacity:1; fill:none" points="703.375,1486.45 703.375,1467.55 "></polyline>
<polyline clip-path="url(#clip540)" style="stroke:#000000; stroke-linecap:round; stroke-linejoin:round; stroke-width:4; stroke-opacity:1; fill:none" points="1020.72,1486.45 1020.72,1467.55 "></polyline>
<polyline clip-path="url(#clip540)" style="stroke:#000000; stroke-linecap:round; stroke-linejoin:round; stroke-width:4; stroke-opacity:1; fill:none" points="1338.07,1486.45 1338.07,1467.55 "></polyline>
<polyline clip-path="url(#clip540)" style="stroke:#000000; stroke-linecap:round; stroke-linejoin:round; stroke-width:4; stroke-opacity:1; fill:none" points="1655.41,1486.45 1655.41,1467.55 "></polyline>
<polyline clip-path="url(#clip540)" style="stroke:#000000; stroke-linecap:round; stroke-linejoin:round; stroke-width:4; stroke-opacity:1; fill:none" points="1972.76,1486.45 1972.76,1467.55 "></polyline>
<polyline clip-path="url(#clip540)" style="stroke:#000000; stroke-linecap:round; stroke-linejoin:round; stroke-width:4; stroke-opacity:1; fill:none" points="2290.1,1486.45 2290.1,1467.55 "></polyline>
<path clip-path="url(#clip540)" d="M340.891 1532.02 L370.566 1532.02 L370.566 1535.95 L340.891 1535.95 L340.891 1532.02 Z" fill="#000000" fill-rule="nonzero" fill-opacity="1"></path><path clip-path="url(#clip540)" d="M381.469 1544.91 L389.108 1544.91 L389.108 1518.55 L380.798 1520.21 L380.798 1515.95 L389.062 1514.29 L393.738 1514.29 L393.738 1544.91 L401.376 1544.91 L401.376 1548.85 L381.469 1548.85 L381.469 1544.91 Z" fill="#000000" fill-rule="nonzero" fill-opacity="1"></path><path clip-path="url(#clip540)" d="M414.849 1544.91 L431.168 1544.91 L431.168 1548.85 L409.224 1548.85 L409.224 1544.91 Q411.886 1542.16 416.469 1537.53 Q421.075 1532.88 422.256 1531.53 Q424.501 1529.01 425.381 1527.27 Q426.284 1525.51 426.284 1523.82 Q426.284 1521.07 424.339 1519.33 Q422.418 1517.6 419.316 1517.6 Q417.117 1517.6 414.663 1518.36 Q412.233 1519.13 409.455 1520.68 L409.455 1515.95 Q412.279 1514.82 414.733 1514.24 Q417.186 1513.66 419.224 1513.66 Q424.594 1513.66 427.788 1516.35 Q430.983 1519.03 430.983 1523.52 Q430.983 1525.65 430.173 1527.57 Q429.385 1529.47 427.279 1532.07 Q426.7 1532.74 423.598 1535.95 Q420.497 1539.15 414.849 1544.91 Z" fill="#000000" fill-rule="nonzero" fill-opacity="1"></path><path clip-path="url(#clip540)" d="M657.437 1532.02 L687.113 1532.02 L687.113 1535.95 L657.437 1535.95 L657.437 1532.02 Z" fill="#000000" fill-rule="nonzero" fill-opacity="1"></path><path clip-path="url(#clip540)" d="M698.016 1544.91 L705.655 1544.91 L705.655 1518.55 L697.345 1520.21 L697.345 1515.95 L705.608 1514.29 L710.284 1514.29 L710.284 1544.91 L717.923 1544.91 L717.923 1548.85 L698.016 1548.85 L698.016 1544.91 Z" fill="#000000" fill-rule="nonzero" fill-opacity="1"></path><path clip-path="url(#clip540)" d="M737.367 1517.37 Q733.756 1517.37 731.928 1520.93 Q730.122 1524.47 730.122 1531.6 Q730.122 1538.71 731.928 1542.27 Q733.756 1545.82 737.367 1545.82 Q741.002 1545.82 742.807 1542.27 Q744.636 1538.71 744.636 1531.6 Q744.636 1524.47 742.807 1520.93 Q741.002 1517.37 737.367 1517.37 M737.367 1513.66 Q743.178 1513.66 746.233 1518.27 Q749.312 1522.85 749.312 1531.6 Q749.312 1540.33 746.233 1544.94 Q743.178 1549.52 737.367 1549.52 Q731.557 1549.52 728.479 1544.94 Q725.423 1540.33 725.423 1531.6 Q725.423 1522.85 728.479 1518.27 Q731.557 1513.66 737.367 1513.66 Z" fill="#000000" fill-rule="nonzero" fill-opacity="1"></path><path clip-path="url(#clip540)" d="M989.91 1532.02 L1019.59 1532.02 L1019.59 1535.95 L989.91 1535.95 L989.91 1532.02 Z" fill="#000000" fill-rule="nonzero" fill-opacity="1"></path><path clip-path="url(#clip540)" d="M1039.68 1532.44 Q1036.34 1532.44 1034.42 1534.22 Q1032.53 1536 1032.53 1539.13 Q1032.53 1542.25 1034.42 1544.03 Q1036.34 1545.82 1039.68 1545.82 Q1043.01 1545.82 1044.93 1544.03 Q1046.85 1542.23 1046.85 1539.13 Q1046.85 1536 1044.93 1534.22 Q1043.03 1532.44 1039.68 1532.44 M1035 1530.45 Q1031.99 1529.7 1030.3 1527.64 Q1028.64 1525.58 1028.64 1522.62 Q1028.64 1518.48 1031.58 1516.07 Q1034.54 1513.66 1039.68 1513.66 Q1044.84 1513.66 1047.78 1516.07 Q1050.72 1518.48 1050.72 1522.62 Q1050.72 1525.58 1049.03 1527.64 Q1047.36 1529.7 1044.38 1530.45 Q1047.76 1531.23 1049.63 1533.52 Q1051.53 1535.82 1051.53 1539.13 Q1051.53 1544.15 1048.45 1546.83 Q1045.4 1549.52 1039.68 1549.52 Q1033.96 1549.52 1030.88 1546.83 Q1027.83 1544.15 1027.83 1539.13 Q1027.83 1535.82 1029.72 1533.52 Q1031.62 1531.23 1035 1530.45 M1033.29 1523.06 Q1033.29 1525.75 1034.96 1527.25 Q1036.65 1528.76 1039.68 1528.76 Q1042.69 1528.76 1044.38 1527.25 Q1046.09 1525.75 1046.09 1523.06 Q1046.09 1520.38 1044.38 1518.87 Q1042.69 1517.37 1039.68 1517.37 Q1036.65 1517.37 1034.96 1518.87 Q1033.29 1520.38 1033.29 1523.06 Z" fill="#000000" fill-rule="nonzero" fill-opacity="1"></path><path clip-path="url(#clip540)" d="M1307.13 1532.02 L1336.8 1532.02 L1336.8 1535.95 L1307.13 1535.95 L1307.13 1532.02 Z" fill="#000000" fill-rule="nonzero" fill-opacity="1"></path><path clip-path="url(#clip540)" d="M1357.47 1529.7 Q1354.33 1529.7 1352.47 1531.86 Q1350.65 1534.01 1350.65 1537.76 Q1350.65 1541.49 1352.47 1543.66 Q1354.33 1545.82 1357.47 1545.82 Q1360.62 1545.82 1362.45 1543.66 Q1364.3 1541.49 1364.3 1537.76 Q1364.3 1534.01 1362.45 1531.86 Q1360.62 1529.7 1357.47 1529.7 M1366.76 1515.05 L1366.76 1519.31 Q1365 1518.48 1363.19 1518.04 Q1361.41 1517.6 1359.65 1517.6 Q1355.02 1517.6 1352.57 1520.72 Q1350.14 1523.85 1349.79 1530.17 Q1351.16 1528.15 1353.22 1527.09 Q1355.28 1526 1357.75 1526 Q1362.96 1526 1365.97 1529.17 Q1369 1532.32 1369 1537.76 Q1369 1543.08 1365.85 1546.3 Q1362.71 1549.52 1357.47 1549.52 Q1351.48 1549.52 1348.31 1544.94 Q1345.14 1540.33 1345.14 1531.6 Q1345.14 1523.41 1349.03 1518.55 Q1352.91 1513.66 1359.47 1513.66 Q1361.22 1513.66 1363.01 1514.01 Q1364.81 1514.36 1366.76 1515.05 Z" fill="#000000" fill-rule="nonzero" fill-opacity="1"></path><path clip-path="url(#clip540)" d="M1624.31 1532.02 L1653.99 1532.02 L1653.99 1535.95 L1624.31 1535.95 L1624.31 1532.02 Z" fill="#000000" fill-rule="nonzero" fill-opacity="1"></path><path clip-path="url(#clip540)" d="M1676.93 1518.36 L1665.12 1536.81 L1676.93 1536.81 L1676.93 1518.36 M1675.7 1514.29 L1681.58 1514.29 L1681.58 1536.81 L1686.51 1536.81 L1686.51 1540.7 L1681.58 1540.7 L1681.58 1548.85 L1676.93 1548.85 L1676.93 1540.7 L1661.32 1540.7 L1661.32 1536.19 L1675.7 1514.29 Z" fill="#000000" fill-rule="nonzero" fill-opacity="1"></path><path clip-path="url(#clip540)" d="M1942.7 1532.02 L1972.37 1532.02 L1972.37 1535.95 L1942.7 1535.95 L1942.7 1532.02 Z" fill="#000000" fill-rule="nonzero" fill-opacity="1"></path><path clip-path="url(#clip540)" d="M1986.49 1544.91 L2002.81 1544.91 L2002.81 1548.85 L1980.87 1548.85 L1980.87 1544.91 Q1983.53 1542.16 1988.11 1537.53 Q1992.72 1532.88 1993.9 1531.53 Q1996.15 1529.01 1997.03 1527.27 Q1997.93 1525.51 1997.93 1523.82 Q1997.93 1521.07 1995.98 1519.33 Q1994.06 1517.6 1990.96 1517.6 Q1988.76 1517.6 1986.31 1518.36 Q1983.88 1519.13 1981.1 1520.68 L1981.1 1515.95 Q1983.92 1514.82 1986.38 1514.24 Q1988.83 1513.66 1990.87 1513.66 Q1996.24 1513.66 1999.43 1516.35 Q2002.63 1519.03 2002.63 1523.52 Q2002.63 1525.65 2001.82 1527.57 Q2001.03 1529.47 1998.92 1532.07 Q1998.35 1532.74 1995.24 1535.95 Q1992.14 1539.15 1986.49 1544.91 Z" fill="#000000" fill-rule="nonzero" fill-opacity="1"></path><path clip-path="url(#clip540)" d="M2290.1 1517.37 Q2286.49 1517.37 2284.66 1520.93 Q2282.86 1524.47 2282.86 1531.6 Q2282.86 1538.71 2284.66 1542.27 Q2286.49 1545.82 2290.1 1545.82 Q2293.74 1545.82 2295.54 1542.27 Q2297.37 1538.71 2297.37 1531.6 Q2297.37 1524.47 2295.54 1520.93 Q2293.74 1517.37 2290.1 1517.37 M2290.1 1513.66 Q2295.91 1513.66 2298.97 1518.27 Q2302.05 1522.85 2302.05 1531.6 Q2302.05 1540.33 2298.97 1544.94 Q2295.91 1549.52 2290.1 1549.52 Q2284.29 1549.52 2281.21 1544.94 Q2278.16 1540.33 2278.16 1531.6 Q2278.16 1522.85 2281.21 1518.27 Q2284.29 1513.66 2290.1 1513.66 Z" fill="#000000" fill-rule="nonzero" fill-opacity="1"></path><polyline clip-path="url(#clip540)" style="stroke:#000000; stroke-linecap:round; stroke-linejoin:round; stroke-width:4; stroke-opacity:1; fill:none" points="138.959,1486.45 138.959,47.2441 "></polyline>
<polyline clip-path="url(#clip540)" style="stroke:#000000; stroke-linecap:round; stroke-linejoin:round; stroke-width:4; stroke-opacity:1; fill:none" points="138.959,1445.72 157.857,1445.72 "></polyline>
<polyline clip-path="url(#clip540)" style="stroke:#000000; stroke-linecap:round; stroke-linejoin:round; stroke-width:4; stroke-opacity:1; fill:none" points="138.959,1239.41 157.857,1239.41 "></polyline>
<polyline clip-path="url(#clip540)" style="stroke:#000000; stroke-linecap:round; stroke-linejoin:round; stroke-width:4; stroke-opacity:1; fill:none" points="138.959,1033.1 157.857,1033.1 "></polyline>
<polyline clip-path="url(#clip540)" style="stroke:#000000; stroke-linecap:round; stroke-linejoin:round; stroke-width:4; stroke-opacity:1; fill:none" points="138.959,826.791 157.857,826.791 "></polyline>
<polyline clip-path="url(#clip540)" style="stroke:#000000; stroke-linecap:round; stroke-linejoin:round; stroke-width:4; stroke-opacity:1; fill:none" points="138.959,620.482 157.857,620.482 "></polyline>
<polyline clip-path="url(#clip540)" style="stroke:#000000; stroke-linecap:round; stroke-linejoin:round; stroke-width:4; stroke-opacity:1; fill:none" points="138.959,414.174 157.857,414.174 "></polyline>
<polyline clip-path="url(#clip540)" style="stroke:#000000; stroke-linecap:round; stroke-linejoin:round; stroke-width:4; stroke-opacity:1; fill:none" points="138.959,207.866 157.857,207.866 "></polyline>
<path clip-path="url(#clip540)" d="M91.0151 1431.51 Q87.404 1431.51 85.5753 1435.08 Q83.7697 1438.62 83.7697 1445.75 Q83.7697 1452.86 85.5753 1456.42 Q87.404 1459.96 91.0151 1459.96 Q94.6493 1459.96 96.4548 1456.42 Q98.2835 1452.86 98.2835 1445.75 Q98.2835 1438.62 96.4548 1435.08 Q94.6493 1431.51 91.0151 1431.51 M91.0151 1427.81 Q96.8252 1427.81 99.8808 1432.42 Q102.959 1437 102.959 1445.75 Q102.959 1454.48 99.8808 1459.08 Q96.8252 1463.67 91.0151 1463.67 Q85.2049 1463.67 82.1262 1459.08 Q79.0707 1454.48 79.0707 1445.75 Q79.0707 1437 82.1262 1432.42 Q85.2049 1427.81 91.0151 1427.81 Z" fill="#000000" fill-rule="nonzero" fill-opacity="1"></path><path clip-path="url(#clip540)" d="M86.6401 1252.75 L102.959 1252.75 L102.959 1256.69 L81.0151 1256.69 L81.0151 1252.75 Q83.6771 1250 88.2604 1245.37 Q92.8669 1240.72 94.0475 1239.37 Q96.2928 1236.85 97.1724 1235.11 Q98.0752 1233.35 98.0752 1231.66 Q98.0752 1228.91 96.1308 1227.17 Q94.2095 1225.44 91.1077 1225.44 Q88.9086 1225.44 86.4549 1226.2 Q84.0244 1226.97 81.2466 1228.52 L81.2466 1223.79 Q84.0707 1222.66 86.5243 1222.08 Q88.978 1221.5 91.0151 1221.5 Q96.3854 1221.5 99.5798 1224.19 Q102.774 1226.87 102.774 1231.36 Q102.774 1233.49 101.964 1235.41 Q101.177 1237.31 99.0706 1239.91 Q98.4919 1240.58 95.39 1243.79 Q92.2882 1246.99 86.6401 1252.75 Z" fill="#000000" fill-rule="nonzero" fill-opacity="1"></path><path clip-path="url(#clip540)" d="M93.3762 1019.89 L81.5707 1038.34 L93.3762 1038.34 L93.3762 1019.89 M92.1493 1015.82 L98.0289 1015.82 L98.0289 1038.34 L102.959 1038.34 L102.959 1042.23 L98.0289 1042.23 L98.0289 1050.38 L93.3762 1050.38 L93.3762 1042.23 L77.7744 1042.23 L77.7744 1037.72 L92.1493 1015.82 Z" fill="#000000" fill-rule="nonzero" fill-opacity="1"></path><path clip-path="url(#clip540)" d="M91.4317 824.927 Q88.2836 824.927 86.4318 827.08 Q84.6031 829.233 84.6031 832.983 Q84.6031 836.71 86.4318 838.886 Q88.2836 841.038 91.4317 841.038 Q94.5799 841.038 96.4085 838.886 Q98.2604 836.71 98.2604 832.983 Q98.2604 829.233 96.4085 827.08 Q94.5799 824.927 91.4317 824.927 M100.714 810.275 L100.714 814.534 Q98.9548 813.701 97.1493 813.261 Q95.3669 812.821 93.6076 812.821 Q88.978 812.821 86.5243 815.946 Q84.0938 819.071 83.7466 825.39 Q85.1123 823.376 87.1725 822.312 Q89.2327 821.224 91.7095 821.224 Q96.9178 821.224 99.927 824.395 Q102.959 827.543 102.959 832.983 Q102.959 838.307 99.8113 841.524 Q96.6632 844.742 91.4317 844.742 Q85.4364 844.742 82.2651 840.159 Q79.0938 835.552 79.0938 826.825 Q79.0938 818.631 82.9827 813.77 Q86.8716 808.886 93.4225 808.886 Q95.1817 808.886 96.9641 809.233 Q98.7696 809.58 100.714 810.275 Z" fill="#000000" fill-rule="nonzero" fill-opacity="1"></path><path clip-path="url(#clip540)" d="M91.1077 621.35 Q87.7743 621.35 85.8531 623.133 Q83.9549 624.915 83.9549 628.04 Q83.9549 631.165 85.8531 632.948 Q87.7743 634.73 91.1077 634.73 Q94.441 634.73 96.3623 632.948 Q98.2835 631.142 98.2835 628.04 Q98.2835 624.915 96.3623 623.133 Q94.4641 621.35 91.1077 621.35 M86.4318 619.36 Q83.4225 618.619 81.7327 616.559 Q80.066 614.499 80.066 611.536 Q80.066 607.392 83.0058 604.985 Q85.9688 602.577 91.1077 602.577 Q96.2697 602.577 99.2095 604.985 Q102.149 607.392 102.149 611.536 Q102.149 614.499 100.459 616.559 Q98.7928 618.619 95.8067 619.36 Q99.1863 620.147 101.061 622.438 Q102.959 624.73 102.959 628.04 Q102.959 633.063 99.8808 635.749 Q96.8252 638.434 91.1077 638.434 Q85.3901 638.434 82.3114 635.749 Q79.2559 633.063 79.2559 628.04 Q79.2559 624.73 81.154 622.438 Q83.0521 620.147 86.4318 619.36 M84.7188 611.976 Q84.7188 614.661 86.3855 616.165 Q88.0753 617.67 91.1077 617.67 Q94.1169 617.67 95.8067 616.165 Q97.5197 614.661 97.5197 611.976 Q97.5197 609.29 95.8067 607.786 Q94.1169 606.281 91.1077 606.281 Q88.0753 606.281 86.3855 607.786 Q84.7188 609.29 84.7188 611.976 Z" fill="#000000" fill-rule="nonzero" fill-opacity="1"></path><path clip-path="url(#clip540)" d="M51.6634 427.519 L59.3023 427.519 L59.3023 401.153 L50.9921 402.82 L50.9921 398.561 L59.256 396.894 L63.9319 396.894 L63.9319 427.519 L71.5707 427.519 L71.5707 431.454 L51.6634 431.454 L51.6634 427.519 Z" fill="#000000" fill-rule="nonzero" fill-opacity="1"></path><path clip-path="url(#clip540)" d="M91.0151 399.973 Q87.404 399.973 85.5753 403.538 Q83.7697 407.079 83.7697 414.209 Q83.7697 421.315 85.5753 424.88 Q87.404 428.422 91.0151 428.422 Q94.6493 428.422 96.4548 424.88 Q98.2835 421.315 98.2835 414.209 Q98.2835 407.079 96.4548 403.538 Q94.6493 399.973 91.0151 399.973 M91.0151 396.269 Q96.8252 396.269 99.8808 400.876 Q102.959 405.459 102.959 414.209 Q102.959 422.936 99.8808 427.542 Q96.8252 432.125 91.0151 432.125 Q85.2049 432.125 82.1262 427.542 Q79.0707 422.936 79.0707 414.209 Q79.0707 405.459 82.1262 400.876 Q85.2049 396.269 91.0151 396.269 Z" fill="#000000" fill-rule="nonzero" fill-opacity="1"></path><path clip-path="url(#clip540)" d="M53.2606 221.211 L60.8995 221.211 L60.8995 194.845 L52.5893 196.512 L52.5893 192.252 L60.8532 190.586 L65.5291 190.586 L65.5291 221.211 L73.1679 221.211 L73.1679 225.146 L53.2606 225.146 L53.2606 221.211 Z" fill="#000000" fill-rule="nonzero" fill-opacity="1"></path><path clip-path="url(#clip540)" d="M86.6401 221.211 L102.959 221.211 L102.959 225.146 L81.0151 225.146 L81.0151 221.211 Q83.6771 218.456 88.2604 213.826 Q92.8669 209.174 94.0475 207.831 Q96.2928 205.308 97.1724 203.572 Q98.0752 201.813 98.0752 200.123 Q98.0752 197.368 96.1308 195.632 Q94.2095 193.896 91.1077 193.896 Q88.9086 193.896 86.4549 194.66 Q84.0244 195.424 81.2466 196.975 L81.2466 192.252 Q84.0707 191.118 86.5243 190.54 Q88.978 189.961 91.0151 189.961 Q96.3854 189.961 99.5798 192.646 Q102.774 195.331 102.774 199.822 Q102.774 201.951 101.964 203.873 Q101.177 205.771 99.0706 208.363 Q98.4919 209.035 95.39 212.252 Q92.2882 215.447 86.6401 221.211 Z" fill="#000000" fill-rule="nonzero" fill-opacity="1"></path><polyline clip-path="url(#clip542)" style="stroke:#000000; stroke-linecap:round; stroke-linejoin:round; stroke-width:4; stroke-opacity:1; fill:none" points="2177.9,1372.77 2290.1,1445.72 "></polyline>
<polyline clip-path="url(#clip542)" style="stroke:#000000; stroke-linecap:round; stroke-linejoin:round; stroke-width:4; stroke-opacity:1; fill:none" points="2155.46,1358.19 2177.9,1372.77 "></polyline>
<polyline clip-path="url(#clip542)" style="stroke:#000000; stroke-linecap:round; stroke-linejoin:round; stroke-width:4; stroke-opacity:1; fill:none" points="2155.46,1358.19 2155.46,1255.03 "></polyline>
<polyline clip-path="url(#clip542)" style="stroke:#000000; stroke-linecap:round; stroke-linejoin:round; stroke-width:4; stroke-opacity:1; fill:none" points="1996.79,1358.19 2155.46,1358.19 "></polyline>
<polyline clip-path="url(#clip542)" style="stroke:#000000; stroke-linecap:round; stroke-linejoin:round; stroke-width:4; stroke-opacity:1; fill:none" points="2043.26,1285.25 2155.46,1358.19 "></polyline>
<polyline clip-path="url(#clip542)" style="stroke:#000000; stroke-linecap:round; stroke-linejoin:round; stroke-width:4; stroke-opacity:1; fill:none" points="2043.26,1285.25 2043.26,1182.09 "></polyline>
<polyline clip-path="url(#clip542)" style="stroke:#000000; stroke-linecap:round; stroke-linejoin:round; stroke-width:4; stroke-opacity:1; fill:none" points="1884.59,1285.25 2043.26,1285.25 "></polyline>
<polyline clip-path="url(#clip542)" style="stroke:#000000; stroke-linecap:round; stroke-linejoin:round; stroke-width:4; stroke-opacity:1; fill:none" points="1931.07,1212.3 2043.26,1285.25 "></polyline>
<polyline clip-path="url(#clip542)" style="stroke:#000000; stroke-linecap:round; stroke-linejoin:round; stroke-width:4; stroke-opacity:1; fill:none" points="1931.07,1212.3 1931.07,1109.15 "></polyline>
<polyline clip-path="url(#clip542)" style="stroke:#000000; stroke-linecap:round; stroke-linejoin:round; stroke-width:4; stroke-opacity:1; fill:none" points="1772.39,1212.3 1931.07,1212.3 "></polyline>
<polyline clip-path="url(#clip542)" style="stroke:#000000; stroke-linecap:round; stroke-linejoin:round; stroke-width:4; stroke-opacity:1; fill:none" points="1818.87,1139.36 1931.07,1212.3 "></polyline>
<polyline clip-path="url(#clip542)" style="stroke:#000000; stroke-linecap:round; stroke-linejoin:round; stroke-width:4; stroke-opacity:1; fill:none" points="1818.87,1139.36 1818.87,1036.21 "></polyline>
<polyline clip-path="url(#clip542)" style="stroke:#000000; stroke-linecap:round; stroke-linejoin:round; stroke-width:4; stroke-opacity:1; fill:none" points="1660.19,1139.36 1818.87,1139.36 "></polyline>
<polyline clip-path="url(#clip542)" style="stroke:#000000; stroke-linecap:round; stroke-linejoin:round; stroke-width:4; stroke-opacity:1; fill:none" points="1706.67,1066.42 1818.87,1139.36 "></polyline>
<polyline clip-path="url(#clip542)" style="stroke:#000000; stroke-linecap:round; stroke-linejoin:round; stroke-width:4; stroke-opacity:1; fill:none" points="1706.67,1066.42 1706.67,963.268 "></polyline>
<polyline clip-path="url(#clip542)" style="stroke:#000000; stroke-linecap:round; stroke-linejoin:round; stroke-width:4; stroke-opacity:1; fill:none" points="1548,1066.42 1706.67,1066.42 "></polyline>
<polyline clip-path="url(#clip542)" style="stroke:#000000; stroke-linecap:round; stroke-linejoin:round; stroke-width:4; stroke-opacity:1; fill:none" points="1594.47,993.481 1706.67,1066.42 "></polyline>
<polyline clip-path="url(#clip542)" style="stroke:#000000; stroke-linecap:round; stroke-linejoin:round; stroke-width:4; stroke-opacity:1; fill:none" points="1594.47,993.481 1594.47,890.327 "></polyline>
<polyline clip-path="url(#clip542)" style="stroke:#000000; stroke-linecap:round; stroke-linejoin:round; stroke-width:4; stroke-opacity:1; fill:none" points="1435.8,993.481 1594.47,993.481 "></polyline>
<polyline clip-path="url(#clip542)" style="stroke:#000000; stroke-linecap:round; stroke-linejoin:round; stroke-width:4; stroke-opacity:1; fill:none" points="1482.27,920.54 1594.47,993.481 "></polyline>
<polyline clip-path="url(#clip542)" style="stroke:#000000; stroke-linecap:round; stroke-linejoin:round; stroke-width:4; stroke-opacity:1; fill:none" points="1482.27,920.54 1482.27,817.386 "></polyline>
<polyline clip-path="url(#clip542)" style="stroke:#000000; stroke-linecap:round; stroke-linejoin:round; stroke-width:4; stroke-opacity:1; fill:none" points="1323.6,920.54 1482.27,920.54 "></polyline>
<polyline clip-path="url(#clip542)" style="stroke:#000000; stroke-linecap:round; stroke-linejoin:round; stroke-width:4; stroke-opacity:1; fill:none" points="1370.07,847.599 1482.27,920.54 "></polyline>
<polyline clip-path="url(#clip542)" style="stroke:#000000; stroke-linecap:round; stroke-linejoin:round; stroke-width:4; stroke-opacity:1; fill:none" points="1370.07,847.599 1370.07,744.445 "></polyline>
<polyline clip-path="url(#clip542)" style="stroke:#000000; stroke-linecap:round; stroke-linejoin:round; stroke-width:4; stroke-opacity:1; fill:none" points="1211.4,847.599 1370.07,847.599 "></polyline>
<polyline clip-path="url(#clip542)" style="stroke:#000000; stroke-linecap:round; stroke-linejoin:round; stroke-width:4; stroke-opacity:1; fill:none" points="1257.87,774.658 1370.07,847.599 "></polyline>
<polyline clip-path="url(#clip542)" style="stroke:#000000; stroke-linecap:round; stroke-linejoin:round; stroke-width:4; stroke-opacity:1; fill:none" points="1257.87,774.658 1257.87,671.504 "></polyline>
<polyline clip-path="url(#clip542)" style="stroke:#000000; stroke-linecap:round; stroke-linejoin:round; stroke-width:4; stroke-opacity:1; fill:none" points="1099.2,774.658 1257.87,774.658 "></polyline>
<polyline clip-path="url(#clip542)" style="stroke:#000000; stroke-linecap:round; stroke-linejoin:round; stroke-width:4; stroke-opacity:1; fill:none" points="1145.68,701.717 1257.87,774.658 "></polyline>
<polyline clip-path="url(#clip542)" style="stroke:#000000; stroke-linecap:round; stroke-linejoin:round; stroke-width:4; stroke-opacity:1; fill:none" points="1145.68,701.717 1145.68,598.563 "></polyline>
<polyline clip-path="url(#clip542)" style="stroke:#000000; stroke-linecap:round; stroke-linejoin:round; stroke-width:4; stroke-opacity:1; fill:none" points="987.004,701.717 1145.68,701.717 "></polyline>
<polyline clip-path="url(#clip542)" style="stroke:#000000; stroke-linecap:round; stroke-linejoin:round; stroke-width:4; stroke-opacity:1; fill:none" points="1033.48,628.776 1145.68,701.717 "></polyline>
<polyline clip-path="url(#clip542)" style="stroke:#000000; stroke-linecap:round; stroke-linejoin:round; stroke-width:4; stroke-opacity:1; fill:none" points="1033.48,628.776 1033.48,525.622 "></polyline>
<polyline clip-path="url(#clip542)" style="stroke:#000000; stroke-linecap:round; stroke-linejoin:round; stroke-width:4; stroke-opacity:1; fill:none" points="874.805,628.776 1033.48,628.776 "></polyline>
<polyline clip-path="url(#clip542)" style="stroke:#000000; stroke-linecap:round; stroke-linejoin:round; stroke-width:4; stroke-opacity:1; fill:none" points="921.279,555.835 1033.48,628.776 "></polyline>
<polyline clip-path="url(#clip542)" style="stroke:#000000; stroke-linecap:round; stroke-linejoin:round; stroke-width:4; stroke-opacity:1; fill:none" points="921.279,555.835 921.279,452.681 "></polyline>
<polyline clip-path="url(#clip542)" style="stroke:#000000; stroke-linecap:round; stroke-linejoin:round; stroke-width:4; stroke-opacity:1; fill:none" points="762.607,555.835 921.279,555.835 "></polyline>
<polyline clip-path="url(#clip542)" style="stroke:#000000; stroke-linecap:round; stroke-linejoin:round; stroke-width:4; stroke-opacity:1; fill:none" points="809.081,482.894 921.279,555.835 "></polyline>
<polyline clip-path="url(#clip542)" style="stroke:#000000; stroke-linecap:round; stroke-linejoin:round; stroke-width:4; stroke-opacity:1; fill:none" points="809.081,482.894 809.081,379.74 "></polyline>
<polyline clip-path="url(#clip542)" style="stroke:#000000; stroke-linecap:round; stroke-linejoin:round; stroke-width:4; stroke-opacity:1; fill:none" points="650.408,482.894 809.081,482.894 "></polyline>
<polyline clip-path="url(#clip542)" style="stroke:#000000; stroke-linecap:round; stroke-linejoin:round; stroke-width:4; stroke-opacity:1; fill:none" points="696.882,409.953 809.081,482.894 "></polyline>
<polyline clip-path="url(#clip542)" style="stroke:#000000; stroke-linecap:round; stroke-linejoin:round; stroke-width:4; stroke-opacity:1; fill:none" points="696.882,409.953 696.882,306.799 "></polyline>
<polyline clip-path="url(#clip542)" style="stroke:#000000; stroke-linecap:round; stroke-linejoin:round; stroke-width:4; stroke-opacity:1; fill:none" points="538.21,409.953 696.882,409.953 "></polyline>
<polyline clip-path="url(#clip542)" style="stroke:#000000; stroke-linecap:round; stroke-linejoin:round; stroke-width:4; stroke-opacity:1; fill:none" points="584.684,337.012 696.882,409.953 "></polyline>
<polyline clip-path="url(#clip542)" style="stroke:#000000; stroke-linecap:round; stroke-linejoin:round; stroke-width:4; stroke-opacity:1; fill:none" points="584.684,337.012 584.684,233.858 "></polyline>
<polyline clip-path="url(#clip542)" style="stroke:#000000; stroke-linecap:round; stroke-linejoin:round; stroke-width:4; stroke-opacity:1; fill:none" points="426.011,337.012 584.684,337.012 "></polyline>
<polyline clip-path="url(#clip542)" style="stroke:#000000; stroke-linecap:round; stroke-linejoin:round; stroke-width:4; stroke-opacity:1; fill:none" points="472.485,264.071 584.684,337.012 "></polyline>
<polyline clip-path="url(#clip542)" style="stroke:#000000; stroke-linecap:round; stroke-linejoin:round; stroke-width:4; stroke-opacity:1; fill:none" points="472.485,264.071 472.485,160.917 "></polyline>
<polyline clip-path="url(#clip542)" style="stroke:#000000; stroke-linecap:round; stroke-linejoin:round; stroke-width:4; stroke-opacity:1; fill:none" points="313.813,264.071 472.485,264.071 "></polyline>
<polyline clip-path="url(#clip542)" style="stroke:#000000; stroke-linecap:round; stroke-linejoin:round; stroke-width:4; stroke-opacity:1; fill:none" points="360.287,191.13 472.485,264.071 "></polyline>
<polyline clip-path="url(#clip542)" style="stroke:#000000; stroke-linecap:round; stroke-linejoin:round; stroke-width:4; stroke-opacity:1; fill:none" points="360.287,191.13 360.287,87.9763 "></polyline>
<polyline clip-path="url(#clip542)" style="stroke:#000000; stroke-linecap:round; stroke-linejoin:round; stroke-width:4; stroke-opacity:1; fill:none" points="201.614,191.13 360.287,191.13 "></polyline>
<polyline clip-path="url(#clip542)" style="stroke:#000000; stroke-linecap:round; stroke-linejoin:round; stroke-width:4; stroke-opacity:1; fill:none" points="2177.9,1372.77 2177.9,1269.62 "></polyline>
<polyline clip-path="url(#clip542)" style="stroke:#000000; stroke-linecap:round; stroke-linejoin:round; stroke-width:4; stroke-opacity:1; fill:none" points="2177.9,1269.62 2177.9,1166.47 "></polyline>
<polyline clip-path="url(#clip542)" style="stroke:#000000; stroke-linecap:round; stroke-linejoin:round; stroke-width:4; stroke-opacity:1; fill:none" points="2177.9,1166.47 2177.9,1063.31 "></polyline>
<polyline clip-path="url(#clip542)" style="stroke:#000000; stroke-linecap:round; stroke-linejoin:round; stroke-width:4; stroke-opacity:1; fill:none" points="2177.9,1063.31 2177.9,960.158 "></polyline>
<polyline clip-path="url(#clip542)" style="stroke:#000000; stroke-linecap:round; stroke-linejoin:round; stroke-width:4; stroke-opacity:1; fill:none" points="2177.9,960.158 2177.9,857.004 "></polyline>
<polyline clip-path="url(#clip542)" style="stroke:#000000; stroke-linecap:round; stroke-linejoin:round; stroke-width:4; stroke-opacity:1; fill:none" points="2177.9,857.004 2177.9,753.85 "></polyline>
<polyline clip-path="url(#clip542)" style="stroke:#000000; stroke-linecap:round; stroke-linejoin:round; stroke-width:4; stroke-opacity:1; fill:none" points="2177.9,753.85 2177.9,650.696 "></polyline>
<polyline clip-path="url(#clip542)" style="stroke:#000000; stroke-linecap:round; stroke-linejoin:round; stroke-width:4; stroke-opacity:1; fill:none" points="2177.9,650.696 2177.9,547.541 "></polyline>
<polyline clip-path="url(#clip542)" style="stroke:#000000; stroke-linecap:round; stroke-linejoin:round; stroke-width:4; stroke-opacity:1; fill:none" points="2177.9,547.541 2177.9,444.387 "></polyline>
<circle clip-path="url(#clip542)" cx="2290.1" cy="1445.72" r="14.4" fill="#000000" fill-rule="evenodd" fill-opacity="1" stroke="none"></circle>
<circle clip-path="url(#clip542)" cx="2177.9" cy="1372.77" r="14.4" fill="#000000" fill-rule="evenodd" fill-opacity="1" stroke="none"></circle>
<circle clip-path="url(#clip542)" cx="2155.46" cy="1358.19" r="14.4" fill="#000000" fill-rule="evenodd" fill-opacity="1" stroke="none"></circle>
<circle clip-path="url(#clip542)" cx="2155.46" cy="1255.03" r="14.4" fill="#000000" fill-rule="evenodd" fill-opacity="1" stroke="none"></circle>
<circle clip-path="url(#clip542)" cx="1996.79" cy="1358.19" r="14.4" fill="#000000" fill-rule="evenodd" fill-opacity="1" stroke="none"></circle>
<circle clip-path="url(#clip542)" cx="2043.26" cy="1285.25" r="14.4" fill="#000000" fill-rule="evenodd" fill-opacity="1" stroke="none"></circle>
<circle clip-path="url(#clip542)" cx="2043.26" cy="1182.09" r="14.4" fill="#000000" fill-rule="evenodd" fill-opacity="1" stroke="none"></circle>
<circle clip-path="url(#clip542)" cx="1884.59" cy="1285.25" r="14.4" fill="#000000" fill-rule="evenodd" fill-opacity="1" stroke="none"></circle>
<circle clip-path="url(#clip542)" cx="1931.07" cy="1212.3" r="14.4" fill="#000000" fill-rule="evenodd" fill-opacity="1" stroke="none"></circle>
<circle clip-path="url(#clip542)" cx="1931.07" cy="1109.15" r="14.4" fill="#000000" fill-rule="evenodd" fill-opacity="1" stroke="none"></circle>
<circle clip-path="url(#clip542)" cx="1772.39" cy="1212.3" r="14.4" fill="#000000" fill-rule="evenodd" fill-opacity="1" stroke="none"></circle>
<circle clip-path="url(#clip542)" cx="1818.87" cy="1139.36" r="14.4" fill="#000000" fill-rule="evenodd" fill-opacity="1" stroke="none"></circle>
<circle clip-path="url(#clip542)" cx="1818.87" cy="1036.21" r="14.4" fill="#000000" fill-rule="evenodd" fill-opacity="1" stroke="none"></circle>
<circle clip-path="url(#clip542)" cx="1660.19" cy="1139.36" r="14.4" fill="#000000" fill-rule="evenodd" fill-opacity="1" stroke="none"></circle>
<circle clip-path="url(#clip542)" cx="1706.67" cy="1066.42" r="14.4" fill="#000000" fill-rule="evenodd" fill-opacity="1" stroke="none"></circle>
<circle clip-path="url(#clip542)" cx="1706.67" cy="963.268" r="14.4" fill="#000000" fill-rule="evenodd" fill-opacity="1" stroke="none"></circle>
<circle clip-path="url(#clip542)" cx="1548" cy="1066.42" r="14.4" fill="#000000" fill-rule="evenodd" fill-opacity="1" stroke="none"></circle>
<circle clip-path="url(#clip542)" cx="1594.47" cy="993.481" r="14.4" fill="#000000" fill-rule="evenodd" fill-opacity="1" stroke="none"></circle>
<circle clip-path="url(#clip542)" cx="1594.47" cy="890.327" r="14.4" fill="#000000" fill-rule="evenodd" fill-opacity="1" stroke="none"></circle>
<circle clip-path="url(#clip542)" cx="1435.8" cy="993.481" r="14.4" fill="#000000" fill-rule="evenodd" fill-opacity="1" stroke="none"></circle>
<circle clip-path="url(#clip542)" cx="1482.27" cy="920.54" r="14.4" fill="#000000" fill-rule="evenodd" fill-opacity="1" stroke="none"></circle>
<circle clip-path="url(#clip542)" cx="1482.27" cy="817.386" r="14.4" fill="#000000" fill-rule="evenodd" fill-opacity="1" stroke="none"></circle>
<circle clip-path="url(#clip542)" cx="1323.6" cy="920.54" r="14.4" fill="#000000" fill-rule="evenodd" fill-opacity="1" stroke="none"></circle>
<circle clip-path="url(#clip542)" cx="1370.07" cy="847.599" r="14.4" fill="#000000" fill-rule="evenodd" fill-opacity="1" stroke="none"></circle>
<circle clip-path="url(#clip542)" cx="1370.07" cy="744.445" r="14.4" fill="#000000" fill-rule="evenodd" fill-opacity="1" stroke="none"></circle>
<circle clip-path="url(#clip542)" cx="1211.4" cy="847.599" r="14.4" fill="#000000" fill-rule="evenodd" fill-opacity="1" stroke="none"></circle>
<circle clip-path="url(#clip542)" cx="1257.87" cy="774.658" r="14.4" fill="#000000" fill-rule="evenodd" fill-opacity="1" stroke="none"></circle>
<circle clip-path="url(#clip542)" cx="1257.87" cy="671.504" r="14.4" fill="#000000" fill-rule="evenodd" fill-opacity="1" stroke="none"></circle>
<circle clip-path="url(#clip542)" cx="1099.2" cy="774.658" r="14.4" fill="#000000" fill-rule="evenodd" fill-opacity="1" stroke="none"></circle>
<circle clip-path="url(#clip542)" cx="1145.68" cy="701.717" r="14.4" fill="#000000" fill-rule="evenodd" fill-opacity="1" stroke="none"></circle>
<circle clip-path="url(#clip542)" cx="1145.68" cy="598.563" r="14.4" fill="#000000" fill-rule="evenodd" fill-opacity="1" stroke="none"></circle>
<circle clip-path="url(#clip542)" cx="987.004" cy="701.717" r="14.4" fill="#000000" fill-rule="evenodd" fill-opacity="1" stroke="none"></circle>
<circle clip-path="url(#clip542)" cx="1033.48" cy="628.776" r="14.4" fill="#000000" fill-rule="evenodd" fill-opacity="1" stroke="none"></circle>
<circle clip-path="url(#clip542)" cx="1033.48" cy="525.622" r="14.4" fill="#000000" fill-rule="evenodd" fill-opacity="1" stroke="none"></circle>
<circle clip-path="url(#clip542)" cx="874.805" cy="628.776" r="14.4" fill="#000000" fill-rule="evenodd" fill-opacity="1" stroke="none"></circle>
<circle clip-path="url(#clip542)" cx="921.279" cy="555.835" r="14.4" fill="#000000" fill-rule="evenodd" fill-opacity="1" stroke="none"></circle>
<circle clip-path="url(#clip542)" cx="921.279" cy="452.681" r="14.4" fill="#000000" fill-rule="evenodd" fill-opacity="1" stroke="none"></circle>
<circle clip-path="url(#clip542)" cx="762.607" cy="555.835" r="14.4" fill="#000000" fill-rule="evenodd" fill-opacity="1" stroke="none"></circle>
<circle clip-path="url(#clip542)" cx="809.081" cy="482.894" r="14.4" fill="#000000" fill-rule="evenodd" fill-opacity="1" stroke="none"></circle>
<circle clip-path="url(#clip542)" cx="809.081" cy="379.74" r="14.4" fill="#000000" fill-rule="evenodd" fill-opacity="1" stroke="none"></circle>
<circle clip-path="url(#clip542)" cx="650.408" cy="482.894" r="14.4" fill="#000000" fill-rule="evenodd" fill-opacity="1" stroke="none"></circle>
<circle clip-path="url(#clip542)" cx="696.882" cy="409.953" r="14.4" fill="#000000" fill-rule="evenodd" fill-opacity="1" stroke="none"></circle>
<circle clip-path="url(#clip542)" cx="696.882" cy="306.799" r="14.4" fill="#000000" fill-rule="evenodd" fill-opacity="1" stroke="none"></circle>
<circle clip-path="url(#clip542)" cx="538.21" cy="409.953" r="14.4" fill="#000000" fill-rule="evenodd" fill-opacity="1" stroke="none"></circle>
<circle clip-path="url(#clip542)" cx="584.684" cy="337.012" r="14.4" fill="#000000" fill-rule="evenodd" fill-opacity="1" stroke="none"></circle>
<circle clip-path="url(#clip542)" cx="584.684" cy="233.858" r="14.4" fill="#000000" fill-rule="evenodd" fill-opacity="1" stroke="none"></circle>
<circle clip-path="url(#clip542)" cx="426.011" cy="337.012" r="14.4" fill="#000000" fill-rule="evenodd" fill-opacity="1" stroke="none"></circle>
<circle clip-path="url(#clip542)" cx="472.485" cy="264.071" r="14.4" fill="#000000" fill-rule="evenodd" fill-opacity="1" stroke="none"></circle>
<circle clip-path="url(#clip542)" cx="472.485" cy="160.917" r="14.4" fill="#000000" fill-rule="evenodd" fill-opacity="1" stroke="none"></circle>
<circle clip-path="url(#clip542)" cx="313.813" cy="264.071" r="14.4" fill="#000000" fill-rule="evenodd" fill-opacity="1" stroke="none"></circle>
<circle clip-path="url(#clip542)" cx="360.287" cy="191.13" r="14.4" fill="#000000" fill-rule="evenodd" fill-opacity="1" stroke="none"></circle>
<circle clip-path="url(#clip542)" cx="360.287" cy="87.9763" r="14.4" fill="#000000" fill-rule="evenodd" fill-opacity="1" stroke="none"></circle>
<circle clip-path="url(#clip542)" cx="201.614" cy="191.13" r="14.4" fill="#000000" fill-rule="evenodd" fill-opacity="1" stroke="none"></circle>
<circle clip-path="url(#clip542)" cx="2177.9" cy="1269.62" r="14.4" fill="#000000" fill-rule="evenodd" fill-opacity="1" stroke="none"></circle>
<circle clip-path="url(#clip542)" cx="2177.9" cy="1166.47" r="14.4" fill="#000000" fill-rule="evenodd" fill-opacity="1" stroke="none"></circle>
<circle clip-path="url(#clip542)" cx="2177.9" cy="1063.31" r="14.4" fill="#000000" fill-rule="evenodd" fill-opacity="1" stroke="none"></circle>
<circle clip-path="url(#clip542)" cx="2177.9" cy="960.158" r="14.4" fill="#000000" fill-rule="evenodd" fill-opacity="1" stroke="none"></circle>
<circle clip-path="url(#clip542)" cx="2177.9" cy="857.004" r="14.4" fill="#000000" fill-rule="evenodd" fill-opacity="1" stroke="none"></circle>
<circle clip-path="url(#clip542)" cx="2177.9" cy="753.85" r="14.4" fill="#000000" fill-rule="evenodd" fill-opacity="1" stroke="none"></circle>
<circle clip-path="url(#clip542)" cx="2177.9" cy="650.696" r="14.4" fill="#000000" fill-rule="evenodd" fill-opacity="1" stroke="none"></circle>
<circle clip-path="url(#clip542)" cx="2177.9" cy="547.541" r="14.4" fill="#000000" fill-rule="evenodd" fill-opacity="1" stroke="none"></circle>
<circle clip-path="url(#clip542)" cx="2177.9" cy="444.387" r="14.4" fill="#000000" fill-rule="evenodd" fill-opacity="1" stroke="none"></circle>
</svg>